<?xml version="1.0" encoding="utf-8"?>
<!-- Generator: Adobe Illustrator 21.0.0, SVG Export Plug-In . SVG Version: 6.00 Build 0)  -->
<svg version="1.1" id="Capa_1" xmlns="http://www.w3.org/2000/svg" xmlns:xlink="http://www.w3.org/1999/xlink" x="0px" y="0px"
	 viewBox="0 0 38.3 38.3" style="enable-background:new 0 0 38.3 38.3;" xml:space="preserve">
<style type="text/css">
	.st0{fill:#FFFFFF;}
</style>
<g>
	<path class="st0" d="M21.4,19.3h1.7v-1.6h1c0,0,0.1,0,0.1,0v1.6h1.7v-1.8c0.3-0.1,0.5-0.1,0.7-0.2c0.6-0.2,1-0.6,1.4-1
		c0.3-0.4,0.5-0.9,0.5-1.5c0-0.4-0.1-0.8-0.3-1.2c-0.2-0.4-0.5-0.6-0.9-0.8c-0.2-0.1-0.6-0.3-1.1-0.4c0.4-0.1,0.8-0.3,1.1-0.6
		c0.3-0.2,0.5-0.5,0.6-0.8c0.1-0.3,0.2-0.6,0.2-0.9c0-0.5-0.1-0.9-0.4-1.3C27.4,8.5,27,8.2,26.5,8c-0.2-0.1-0.4-0.1-0.7-0.2V6.1
		h-1.7v1.6h-1.1V6.1h-1.7v1.6h-2.6v1.4h0.4c0.3,0,0.4,0,0.5,0.1c0.1,0,0.2,0.1,0.2,0.2C20,9.4,20,9.6,20,9.9v5.6
		c0,0.3,0,0.5-0.1,0.6c0,0.1-0.1,0.1-0.2,0.2c-0.1,0-0.3,0.1-0.5,0.1h-0.4v1.4h2.6L21.4,19.3L21.4,19.3z M22.5,9.3h1.1
		c0.6,0,1.1,0,1.3,0.1c0.2,0.1,0.4,0.2,0.6,0.4c0.1,0.2,0.2,0.4,0.2,0.7c0,0.3-0.1,0.5-0.2,0.7c-0.1,0.2-0.3,0.3-0.6,0.4
		c-0.3,0.1-0.7,0.1-1.3,0.1h-1.1L22.5,9.3L22.5,9.3z M22.5,13.2h1.3c0.6,0,1,0.1,1.3,0.2c0.3,0.1,0.5,0.3,0.6,0.5
		c0.1,0.2,0.2,0.5,0.2,0.8c0,0.3-0.1,0.6-0.3,0.9c-0.2,0.2-0.4,0.4-0.7,0.5c-0.3,0.1-0.6,0.1-1.1,0.1h-0.7c-0.2,0-0.4,0-0.4,0
		c-0.1,0-0.1-0.1-0.1-0.1c0-0.1,0-0.2,0-0.5L22.5,13.2L22.5,13.2z M38.3,14.5c0,1.8-1.5,3.3-3.3,3.3c-0.6,0-1.2-0.2-1.6-0.5L25.6,25
		c0.1,0.2,0.1,0.5,0.1,0.7c0,1.8-1.5,3.3-3.3,3.3c-1.8,0-3.3-1.5-3.3-3.3c0-0.3,0-0.5,0.1-0.8l-3.6-3.2c-0.6,0.6-1.4,0.9-2.3,0.9
		c-0.6,0-1.1-0.2-1.6-0.4l-5.5,5.6c0.1,0.4,0.2,0.7,0.2,1.1c0,1.8-1.5,3.3-3.3,3.3S0,30.7,0,28.9c0-1.8,1.5-3.3,3.3-3.3
		c0.7,0,1.3,0.2,1.8,0.5l5.4-5.5c-0.2-0.4-0.3-0.9-0.3-1.3c0-1.8,1.5-3.3,3.3-3.3c1.8,0,3.3,1.5,3.3,3.3c0,0.2,0,0.3,0,0.5l3.8,3.3
		c0.6-0.5,1.3-0.7,2-0.7c0.8,0,1.5,0.3,2.1,0.8l7.5-7.5c-0.2-0.4-0.3-0.8-0.3-1.3c0-1.8,1.5-3.3,3.3-3.3
		C36.8,11.2,38.3,12.7,38.3,14.5z"/>
</g>
</svg>
