<?xml version="1.0" encoding="utf-8"?>
<svg version="1.1" id="Capa_1" xmlns="http://www.w3.org/2000/svg" xmlns:xlink="http://www.w3.org/1999/xlink" x="0px" y="0px"
	 viewBox="0 0 1000 1000" enable-background="new 0 0 1000 1000" xml:space="preserve">
		<g>
			<path fill="white" d="M986,228.6v539c0,7.2-4.3,13.9-11,16.9L507.7,998.1c-2.7,1.5-4.7,1.7-7.7,1.7c-2.5,0-5.2-0.5-7.7-1.7
				L25,784.5c-6.8-2.9-11-9.7-11-16.9V228.5c0-9.2,3.2-16.4,11.2-19.9L492,1.7c5-2.2,10.7-2.2,15.7,0l466.9,206.9
				C982.6,212.1,986,219.8,986,228.6z M948.7,755.5V254.9l-430,196.7v500.6L948.7,755.5z M500,419l420.5-192.2l-160.8-71.5
				L352.4,351.5L500,419z M296.9,336.7l417.8-201.1l-79.3-35.1L195.2,312.6v180.2l91.2,43.1V353.4
				C286.4,346.4,290.4,339.7,296.9,336.7z M185.9,275.4L590.7,80.5L500,40.4L79.3,226.8L185.9,275.4z M481.3,952.1l-0.1-500.5
				l-157.5-72v185.6c0,6.2-3.2,12.2-8.7,15.7c-3,2-6.5,3-10,3c-2.8,0-5.5-0.5-8-1.7l-128.6-60.8c-6.5-3.2-10.7-9.7-10.7-16.9V303.6
				L51.3,255v500.4L481.3,952.1z"/>
		</g>
</svg>
