<?xml version="1.0" encoding="utf-8"?>
<!-- Generator: Adobe Illustrator 24.2.0, SVG Export Plug-In . SVG Version: 6.00 Build 0)  -->
<svg version="1.1" id="Шар_1" xmlns="http://www.w3.org/2000/svg" xmlns:xlink="http://www.w3.org/1999/xlink" x="0px" y="0px"
	 viewBox="0 0 1000 1000" style="enable-background:new 0 0 1000 1000;" xml:space="preserve">
<style type="text/css">
	.st0{fill:none;stroke:#000000;stroke-width:50;stroke-linecap:square;stroke-miterlimit:10;}
	.st1{fill:none;stroke:#000000;stroke-width:50;stroke-miterlimit:10;}
	.st2{fill:#190C0C;}
	.st3{fill:none;stroke:#000000;stroke-width:10;stroke-linecap:square;stroke-miterlimit:10;}
</style>
<line class="st0" x1="100" y1="900" x2="100" y2="100"/>
<line class="st0" x1="100" y1="900" x2="900" y2="900"/>
<path class="st1" d="M875,100c0,386.9-313.1,700-700,700"/>
<polygon class="st2" points="975,900 900,950 900,850 "/>
<polygon class="st2" points="100,25 150,100.1 50,100 "/>
<line class="st3" x1="100" y1="800" x2="900" y2="800"/>
<line class="st3" x1="100" y1="700" x2="900" y2="700"/>
<line class="st3" x1="100" y1="600" x2="900" y2="600"/>
<line class="st3" x1="100" y1="500" x2="900" y2="500"/>
<line class="st3" x1="100" y1="400" x2="900" y2="400"/>
<line class="st3" x1="100" y1="300" x2="900" y2="300"/>
<line class="st3" x1="100" y1="200" x2="900" y2="200"/>
<line class="st3" x1="100" y1="100" x2="900" y2="100"/>
<line class="st3" x1="200" y1="100" x2="200" y2="900"/>
<line class="st3" x1="300" y1="100" x2="300" y2="900"/>
<line class="st3" x1="400" y1="100" x2="400" y2="900"/>
<line class="st3" x1="500" y1="100" x2="500" y2="900"/>
<line class="st3" x1="600" y1="100" x2="600" y2="900"/>
<line class="st3" x1="700" y1="100" x2="700" y2="900"/>
<line class="st3" x1="800" y1="100" x2="800" y2="900"/>
<line class="st3" x1="900" y1="100" x2="900" y2="900"/>
</svg>
