<?xml version="1.0" encoding="UTF-8" standalone="no"?>
<svg
   xmlns:dc="http://purl.org/dc/elements/1.1/"
   xmlns:cc="http://creativecommons.org/ns#"
   xmlns:rdf="http://www.w3.org/1999/02/22-rdf-syntax-ns#"
   xmlns:svg="http://www.w3.org/2000/svg"
   xmlns="http://www.w3.org/2000/svg"
   width="1024"
   height="1024"
   viewBox="0 0 270.93333 270.93334"
   version="1.1"
   id="svg8">
  <defs
     id="defs2" />
  <metadata
     id="metadata5">
    <rdf:RDF>
      <cc:Work
         rdf:about="">
        <dc:format>image/svg+xml</dc:format>
        <dc:type
           rdf:resource="http://purl.org/dc/dcmitype/StillImage" />
        <dc:title></dc:title>
      </cc:Work>
    </rdf:RDF>
  </metadata>
  <g
     id="g1133"
     style="display:inline">
    <path
       id="path1131"
       style="fill:#0097ff;fill-opacity:1;stroke:#0000ff;stroke-width:1.47449;stroke-linecap:round;stroke-linejoin:round;stroke-miterlimit:4;stroke-dasharray:none;stroke-opacity:1"
       d="m 146.14816,168.68977 19.17863,-21.02986 19.17863,21.02986 h -13.56979 v 55.57893 l -11.21768,-0.30044 v -55.27849 z" />
  </g>
  <g
     id="layer1"
     style="display:inline">
    <g
       id="g122"
       transform="matrix(0.67082409,0,0,0.58759035,77.269207,81.437249)">
      <path
         d="M 99.015703,229.19871 75.581073,214.27377 95.889414,201.0639 c 3.74568,-2.43655 4.991786,-7.76126 2.783011,-11.89318 -2.208773,-4.13076 -7.034687,-5.50535 -10.781426,-3.06998 l -27.975009,18.19643 -42.179824,-26.86444 42.17248,-26.8598 27.983405,18.19412 c 1.254514,0.81642 2.631851,1.2032 3.990292,1.2032 2.695867,0 5.321417,-1.52861 6.790082,-4.27667 2.207725,-4.13192 0.960574,-9.45663 -2.785115,-11.89316 L 75.575827,140.59517 99.015703,125.66676 c 3.765627,-2.39832 5.055837,-7.71029 2.881707,-11.86422 -2.174135,-4.15509 -6.989556,-5.57834 -10.755184,-3.17885 L 67.707589,125.5498 67.494483,99.538843 c -0.03886,-4.79665 -3.606054,-8.672637 -7.943822,-8.606625 -4.34826,0.04283 -7.841991,3.966312 -7.802097,8.762963 L 52.041456,135.52639 9.8637318,162.38967 V 108.66775 L 38.142136,91.037601 C 41.927706,88.67749 43.261999,83.379416 41.122511,79.202328 38.983023,75.026401 34.179148,73.55336 30.393578,75.914624 L 9.8637318,88.714547 V 58.860026 c 0,-4.796642 -3.5252205,-8.685365 -7.8734836,-8.685365 -4.3482623,0 -7.8734838,3.888723 -7.8734838,8.685365 V 88.714547 L -26.413081,75.915785 c -3.78767,-2.361263 -8.588396,-0.889384 -10.728933,3.287704 -2.139489,4.175927 -0.805195,9.475162 2.980376,11.835264 L -5.884285,108.6689 v 53.72077 l -42.177726,-26.86328 0.292894,-35.831209 c 0.0399,-4.796651 -3.453835,-8.720119 -7.802097,-8.762963 -0.02415,0 -0.04724,0 -0.07244,0 -4.31467,0 -7.832542,3.836608 -7.871384,8.607776 l -0.213109,26.009806 -23.434635,-14.92611 c -3.765628,-2.39949 -8.58104,-0.97508 -10.755174,3.17885 -2.174134,4.15393 -0.883937,9.4659 2.881691,11.86422 l 23.438833,14.92841 -20.314632,13.20756 c -3.745684,2.43537 -4.992845,7.76009 -2.785114,11.89316 1.468664,2.74806 4.094211,4.27669 6.791136,4.27669 1.358444,0 2.734724,-0.38795 3.990291,-1.20322 l 27.986552,-18.19412 42.173527,26.85981 -42.180876,26.86443 -27.979203,-18.1999 c -3.743588,-2.43537 -8.572653,-1.06194 -10.781427,3.06998 -2.208774,4.13192 -0.962667,9.45664 2.783008,11.89203 l 20.311489,13.21103 -23.434628,14.92493 c -3.765627,2.39832 -5.055841,7.7103 -2.8817,11.86423 1.458171,2.78626 4.104705,4.34384 6.825786,4.34384 1.33535,0 2.68958,-0.37521 3.929397,-1.16501 l 23.434629,-14.92609 0.213108,26.01211 c 0.03884,4.77 3.556716,8.60778 7.871384,8.60778 0.02415,0 0.04829,0 0.07244,-9.5e-4 4.348262,-0.0429 7.841989,-3.96632 7.802097,-8.76296 L -48.063063,219.33829 -5.8842868,192.475 v 53.72308 l -28.2773522,17.63016 c -3.785571,2.3601 -5.119865,7.65817 -2.980376,11.83526 1.447671,2.82565 4.115207,4.41333 6.861477,4.41333 1.312249,0 2.643392,-0.36247 3.867456,-1.12563 l 20.5298464,-12.79874 v 29.85452 c 0,4.79664 3.5252215,8.68537 7.8734838,8.68537 4.3482631,0 7.8734836,-3.88873 7.8734836,-8.68537 v -29.85452 l 20.5298462,12.79876 c 1.224064,0.76316 2.554158,1.12563 3.867455,1.12563 2.746271,0 5.413808,-1.58768 6.861478,-4.41333 2.139488,-4.17593 0.805195,-9.47516 -2.980375,-11.83526 L 9.8637318,246.19773 V 192.4758 l 42.1777242,26.86212 -0.300243,35.83121 c -0.04093,4.79664 3.45174,8.72128 7.799999,8.76528 0.02519,9.6e-4 0.04935,9.6e-4 0.07455,9.6e-4 4.313619,0 7.831487,-3.83662 7.87138,-8.60547 l 0.218353,-26.01561 23.437793,14.92727 c 1.239809,0.78979 2.594051,1.16499 3.929392,1.16499 2.721072,0 5.36761,-1.55874 6.82577,-4.34385 2.17415,-4.15391 0.88394,-9.46589 -2.882742,-11.8642 z"
         id="path67"
         style="fill:#00d3ff;fill-opacity:1;stroke-width:1.10259" />
      <g
         id="g69">
</g>
      <g
         id="g71">
</g>
      <g
         id="g73">
</g>
      <g
         id="g75">
</g>
      <g
         id="g77">
</g>
      <g
         id="g79">
</g>
      <g
         id="g81">
</g>
      <g
         id="g83">
</g>
      <g
         id="g85">
</g>
      <g
         id="g87">
</g>
      <g
         id="g89">
</g>
      <g
         id="g91">
</g>
      <g
         id="g93">
</g>
      <g
         id="g95">
</g>
      <g
         id="g97">
</g>
    </g>
  </g>
  <g
     id="g1156"
     style="display:inline">
    <path
       id="path1154"
       style="fill:#0097ff;fill-opacity:1;stroke:#0000ff;stroke-width:1.96168;stroke-linecap:round;stroke-linejoin:round;stroke-miterlimit:4;stroke-dasharray:none;stroke-opacity:1"
       d="m 163.62615,68.398806 24.53039,-29.10214 24.53039,29.10214 h -17.35641 v 76.912804 l -14.34796,-0.41576 V 68.398806 Z" />
  </g>
  <g
     id="g1152"
     style="display:inline">
    <path
       id="path1150"
       style="fill:#0097ff;fill-opacity:1;stroke:#0000ff;stroke-width:1.47449;stroke-linecap:round;stroke-linejoin:round;stroke-miterlimit:4;stroke-dasharray:none;stroke-opacity:1"
       d="m 83.886036,133.56506 19.178634,-21.02986 19.17863,21.02986 h -13.56979 v 55.57893 l -11.217684,-0.30044 v -55.27849 z" />
  </g>
  <g
     id="layer2"
     style="display:inline">
    <path
       id="rect948"
       style="fill:#0097ff;fill-opacity:1;stroke-width:4;stroke:#0000ff;stroke-opacity:1;stroke-miterlimit:4;stroke-dasharray:none;stroke-linejoin:round;stroke-linecap:round"
       d="M 79.375,92.604167 135.46667,39.6875 191.55833,92.604167 h -39.6875 V 232.45536 l -32.80833,-0.75596 0,-139.095233 z" />
  </g>
</svg>
