<?xml version="1.0" encoding="utf-8"?>
<!-- Generator: Adobe Illustrator 17.1.0, SVG Export Plug-In . SVG Version: 6.00 Build 0)  -->
<!DOCTYPE svg PUBLIC "-//W3C//DTD SVG 1.1//EN" "http://www.w3.org/Graphics/SVG/1.1/DTD/svg11.dtd">
<svg version="1.1" id="Capa_1" xmlns="http://www.w3.org/2000/svg" xmlns:xlink="http://www.w3.org/1999/xlink" x="0px" y="0px"
	 viewBox="0 0 1000 1000" enable-background="new 0 0 1000 1000" xml:space="preserve">
<g>
	<path d="M974.6,208.6L507.7,1.7c-5-2.2-10.7-2.2-15.7,0L25.2,208.6c-8,3.5-11.2,10.7-11.2,19.9v539.1c0,7.2,4.2,14,11,16.9
		l467.3,213.6c2.5,1.2,5.2,1.7,7.7,1.7c3,0,5-0.2,7.7-1.7l467.3-213.6c6.7-3,11-9.7,11-16.9V228.6
		C986,219.8,982.6,212.1,974.6,208.6z M296.9,336.7c-6.5,3-10.5,9.7-10.5,16.7v182.5l-91.2-43.1V312.6l440.2-212.1l79.3,35.1
		L296.9,336.7z M500,40.4l90.7,40.1L185.9,275.4L79.3,226.8L500,40.4z M481.3,952.1l-430-196.7V255l106.4,48.6v200.9
		c0,7.2,4.2,13.7,10.7,16.9l128.6,60.8c2.5,1.2,5.2,1.7,8,1.7c3.5,0,7-1,10-3c5.5-3.5,8.7-9.5,8.7-15.7V379.6l157.5,72L481.3,952.1
		L481.3,952.1z M500,419l-147.6-67.5l407.3-196.2l160.8,71.5L500,419z M948.7,755.5l-430,196.7V451.6l430-196.7V755.5z"/>
</g>
</svg>
