<?xml version="1.0" encoding="utf-8"?>
<!-- Generator: Adobe Illustrator 17.1.0, SVG Export Plug-In . SVG Version: 6.00 Build 0)  -->
<!DOCTYPE svg PUBLIC "-//W3C//DTD SVG 1.1//EN" "http://www.w3.org/Graphics/SVG/1.1/DTD/svg11.dtd">
<svg version="1.1" id="Capa_1" xmlns="http://www.w3.org/2000/svg" xmlns:xlink="http://www.w3.org/1999/xlink" x="0px" y="0px"
	 viewBox="0 0 401.2 401.2" enable-background="new 0 0 401.2 401.2" xml:space="preserve">
<g>
	<g id="XMLID_1_">
		<g>
			<path fill="#C4A98F" d="M286.8,54.4l-167.6,80.8c-2.6,1.3-4.2,3.9-4.2,6.8V215l-36.6-17.3v-72.3l176.6-85.1L286.8,54.4z"/>
			<path d="M395.6,91.7V308c0,2.9-1.7,5.6-4.4,6.8l-187.5,85.7c-1.1,0.6-1.9,0.7-3.1,0.7c-1.1,0-2.1-0.2-3.1-0.7L10,314.8
				c-2.7-1.2-4.4-3.9-4.4-6.8V91.7c0-3.7,1.4-6.6,4.5-8L197.4,0.7c2-0.9,4.3-0.9,6.3,0L391,83.7C394.2,85.1,395.6,88.2,395.6,91.7z
				 M380.6,303.1V102.3l-172.5,78.9V382L380.6,303.1z M200.6,168.1L369.3,91l-64.6-28.6l-163.4,78.7L200.6,168.1z M119.2,135.1
				l167.6-80.8l-31.8-14.1L78.3,125.4v72.3l36.6,17.3v-73.1C114.9,139,116.6,136.4,119.2,135.1z M74.6,110.5l162.4-78.2l-36.3-16.1
				L31.8,91L74.6,110.5z M193.1,382V181.2l-63.2-28.9v74.5c0,2.6-1.3,4.9-3.5,6.3c-1.2,0.8-2.6,1.2-4,1.2c-1.1,0-2.2-0.2-3.2-0.7
				l-51.6-24.4c-2.6-1.2-4.3-3.9-4.3-6.8v-80.6l-42.7-19.5v200.8L193.1,382z"/>
			<polygon fill="#AD8762" points="380.6,102.3 380.6,303.1 208.1,382 208.1,181.2 			"/>
			<polygon fill="#AD8762" points="369.3,91 200.6,168.1 141.4,141.1 304.7,62.3 			"/>
			<polygon fill="#AD8762" points="236.9,32.3 74.6,110.5 31.8,91 200.6,16.2 			"/>
			<path fill="#AD8762" d="M193.1,181.2V382L20.6,303.1V102.3l42.7,19.5v80.6c0,2.9,1.7,5.5,4.3,6.8l51.6,24.4
				c1,0.5,2.1,0.7,3.2,0.7c1.4,0,2.8-0.4,4-1.2c2.2-1.4,3.5-3.8,3.5-6.3v-74.5L193.1,181.2z"/>
		</g>
		<g>
		</g>
	</g>
</g>
</svg>
