<svg id="Layer_2" height="512" viewBox="0 0 128 128" width="512" xmlns="http://www.w3.org/2000/svg" data-name="Layer 2"><path d="m11.303 1.75h105.393v124.5h-105.393z" fill="#284cb2"/><path d="m32.243 55.659-9.469 10.008h-11.471v-63.917h11.471l9.469 10.008z" fill="#e8f3fc"/><path d="m62.006 21.333h24.75v24.75h-24.75z" fill="#06daf7"/><path d="m93.834 9.165h15.75v54.5h-15.75z" fill="#e8f3fc"/><path d="m39.249 9.165h15.75v54.5h-15.75z" fill="#e8f3fc"/><path d="m104.5 126.25h-30.119v-35.75h15.059l15.06 10.008z" fill="#06daf7"/><path d="m62.006 1.75h24.75v7.415h-24.75z" fill="#06daf7"/><path d="m30.167 79h35.5v6.833h-35.5z" fill="#e8f3fc"/><path d="m30.167 102.75h35.5v6.833h-35.5z" fill="#e8f3fc"/><path d="m106.375 72.998h10.322v18.75h-10.322z" fill="#06daf7"/><path d="m116.7 0h-105.4a1.75 1.75 0 0 0 -1.75 1.75v124.5a1.75 1.75 0 0 0 1.75 1.75h105.4a1.75 1.75 0 0 0 1.75-1.75v-73.838a1.75 1.75 0 1 0 -3.5 0v18.836h-8.572a1.75 1.75 0 0 0 -1.75 1.75v18.75a1.75 1.75 0 0 0 1.75 1.75h8.572v31h-8.7v-23.99a1.75 1.75 0 0 0 -.781-1.457l-15.06-10.008a1.746 1.746 0 0 0 -.969-.293h-15.06a1.75 1.75 0 0 0 -1.75 1.75v34h-59.577v-57.083h9.721a1.753 1.753 0 0 0 1.271-.547l9.469-10.009a1.753 1.753 0 0 0 .479-1.2v-10.661a1.75 1.75 0 0 0 -3.5 0v9.962l-8.472 8.955h-8.968v-60.417h8.967l8.472 8.954v19.046a1.75 1.75 0 0 0 3.5 0v-19.742a1.751 1.751 0 0 0 -.479-1.2l-6.674-7.058h33.416v5.665a1.75 1.75 0 0 0 1.75 1.75h24.75a1.75 1.75 0 0 0 1.75-1.75v-5.665h26.441v20.667a1.75 1.75 0 0 0 3.5 0v-22.417a1.75 1.75 0 0 0 -1.746-1.75zm-1.75 74.748v5.919h-6.822v-5.919zm-6.825 15.252v-5.833h6.822v5.833zm-31.995 2.25h12.782l13.838 9.2v23.05h-26.62zm8.875-84.835h-21.25v-3.915h21.25z"/><path d="m116.7 34.267a1.75 1.75 0 0 0 -1.75 1.75v4.546a1.75 1.75 0 1 0 3.5 0v-4.546a1.75 1.75 0 0 0 -1.75-1.75z"/><path d="m21.024 15v35.667a1.75 1.75 0 0 0 3.5 0v-35.667a1.75 1.75 0 0 0 -3.5 0z"/><path d="m88.505 21.333a1.75 1.75 0 0 0 -1.75-1.75h-24.75a1.75 1.75 0 0 0 -1.75 1.75v24.75a1.75 1.75 0 0 0 1.75 1.75h24.75a1.75 1.75 0 0 0 1.75-1.75zm-3.5 23h-21.25v-21.25h21.25z"/><path d="m93.834 7.415a1.75 1.75 0 0 0 -1.75 1.75v54.5a1.75 1.75 0 0 0 1.75 1.75h15.75a1.75 1.75 0 0 0 1.75-1.75v-54.5a1.75 1.75 0 0 0 -1.75-1.75zm1.75 13.508h4.375v30.984h-4.375zm7.875 0h4.375v30.984h-4.375zm4.375-3.5h-4.375v-6.508h4.375zm-7.875-6.508v6.508h-4.375v-6.508zm-4.375 44.492h4.375v6.508h-4.375zm7.875 6.508v-6.508h4.375v6.508z"/><path d="m39.249 65.415h15.751a1.75 1.75 0 0 0 1.75-1.75v-54.5a1.75 1.75 0 0 0 -1.75-1.75h-15.751a1.75 1.75 0 0 0 -1.75 1.75v54.5a1.75 1.75 0 0 0 1.75 1.75zm14-13.508h-4.375v-30.984h4.375zm-7.875 0h-4.374v-30.984h4.375zm-4.374 3.5h4.375v6.508h-4.375zm7.875 6.508v-6.508h4.375v6.508zm4.375-44.492h-4.376v-6.508h4.375zm-7.875-6.508v6.508h-4.375v-6.508z"/><path d="m96.125 115.417h-13a1.75 1.75 0 0 0 0 3.5h13a1.75 1.75 0 0 0 0-3.5z"/><path d="m96.125 105.917h-13a1.75 1.75 0 0 0 0 3.5h13a1.75 1.75 0 0 0 0-3.5z"/><path d="m23.523 79a1.75 1.75 0 0 0 -3.5 0v17.75a1.75 1.75 0 0 0 3.5 0z"/><path d="m23.523 104.667a1.75 1.75 0 0 0 -3.5 0v3a1.75 1.75 0 0 0 3.5 0z"/><path d="m21.773 112.417a1.75 1.75 0 0 0 -1.75 1.75v3a1.75 1.75 0 0 0 3.5 0v-3a1.75 1.75 0 0 0 -1.75-1.75z"/><path d="m69.276 40.563a1.744 1.744 0 0 0 1.237-.513l10.209-10.208a1.75 1.75 0 0 0 -2.475-2.475l-10.208 10.208a1.75 1.75 0 0 0 1.237 2.987z"/><path d="m88.505 54.162a1.75 1.75 0 0 0 -1.75-1.75h-24.75a1.75 1.75 0 0 0 0 3.5h24.75a1.75 1.75 0 0 0 1.75-1.75z"/><path d="m81.25 65.415a1.75 1.75 0 0 0 0-3.5h-13.739a1.75 1.75 0 0 0 0 3.5z"/><path d="m67.417 79a1.75 1.75 0 0 0 -1.75-1.75h-35.5a1.75 1.75 0 0 0 -1.75 1.75v6.833a1.75 1.75 0 0 0 1.75 1.75h35.5a1.75 1.75 0 0 0 1.75-1.75zm-35.5 1.75h24.208v3.333h-24.208zm32 3.333h-4.292v-3.333h4.292z"/><path d="m67.417 102.75a1.75 1.75 0 0 0 -1.75-1.75h-35.5a1.75 1.75 0 0 0 -1.75 1.75v6.833a1.75 1.75 0 0 0 1.75 1.75h35.5a1.75 1.75 0 0 0 1.75-1.75zm-35.5 1.75h24.208v3.333h-24.208zm32 3.333h-4.292v-3.333h4.292z"/><path d="m65.667 92.75h-35.5a1.75 1.75 0 0 0 0 3.5h35.5a1.75 1.75 0 1 0 0-3.5z"/><path d="m65.667 116.083h-35.5a1.75 1.75 0 0 0 0 3.5h35.5a1.75 1.75 0 0 0 0-3.5z"/></svg>