<?xml version="1.0"?>
<svg xmlns="http://www.w3.org/2000/svg" viewBox="0 0 512 512" width="512" height="512"><g id="outline"><path d="M52.00354,391.31738a8.00036,8.00036,0,0,0,5.65674,2.34278h.00293a8.00183,8.00183,0,0,0,5.6582-2.34766l6.3291-6.33887A3.31391,3.31391,0,1,1,74.339,389.6582l-6.33984,6.34961a8.00018,8.00018,0,0,0,.00439,11.30957l20,20a7.99951,7.99951,0,0,0,5.65674,2.34278h.00342a7.99979,7.99979,0,0,0,5.65869-2.34864l5.64453-5.65429a3.30237,3.30237,0,0,1,2.34717-.97168h.00146a3.28694,3.28694,0,0,1,2.33789.97168,3.3225,3.3225,0,0,1-.00537,4.6914l-5.6499,5.66016a7.99988,7.99988,0,0,0,.00537,11.30859l50.33984,50.33985A8.00178,8.00178,0,0,0,159.99963,496h.04883a7.99937,7.99937,0,0,0,5.67627-2.41211l328-336a7.99994,7.99994,0,0,0-.06787-11.24512l-48-48a8.00269,8.00269,0,0,0-11.31348,0l-4.68994,4.68946a3.31006,3.31006,0,0,1-5.65332-2.34278,3.25156,3.25156,0,0,1,.9668-2.34277l4.68994-4.68945a8.00063,8.00063,0,0,0,0-11.31446l-16-16a8.00357,8.00357,0,0,0-11.31348,0l-4.68994,4.68946a3.31006,3.31006,0,0,1-5.65332-2.34278,3.25156,3.25156,0,0,1,.9668-2.34277l4.68994-4.68945a8.00063,8.00063,0,0,0,0-11.31446l-32-32a8.00128,8.00128,0,0,0-11.24512-.06738l-336,328a8.00009,8.00009,0,0,0-.06836,11.38184ZM408.443,195.75684l12.9856,12.98559-12.5332,12.83887-12.949-12.949Zm11.14514-11.48291,12.497-12.87549,13.05445,13.05468L432.6062,197.292Zm-34.78686,35.8413,12.9165,12.91651-12.53308,12.83887-12.88012-12.88013Zm-23.64172,24.35816L374.007,257.3208l-12.53321,12.83887-12.81091-12.811ZM337.5177,268.83154l12.77856,12.77857L337.76306,294.449,325.02112,281.707ZM313.876,293.18994l12.70935,12.70923L314.05212,318.738l-12.67285-12.67285ZM290.23425,317.5481l12.64038,12.64038-12.5332,12.83886-12.604-12.604Zm-23.64184,24.35815,12.57129,12.57129-12.53308,12.83887L254.0957,354.78174ZM242.95062,366.2644,255.453,378.76685l-12.5332,12.83886L230.454,379.13989Zm-23.64178,24.35816,12.43335,12.43359L219.209,415.895l-12.39679-12.397ZM195.66705,414.981l12.36432,12.36425-16.485,16.88721L179.2301,431.916ZM359.93225,35.24609l20.7876,20.78711a19.31444,19.31444,0,0,0,27.24609,27.2461l4.75391,4.7539a19.31444,19.31444,0,0,0,27.24609,27.2461L476.754,152.06738l-20.437,20.93555-18.66016-18.66016A7.99882,7.99882,0,0,0,432.00012,152h-.05957a8.00348,8.00348,0,0,0-5.68115,2.42773l-264,272a8.00089,8.00089,0,0,0,.084,11.2295l18.02539,18.02539-20.437,20.93554-38.96289-38.96289a19.31469,19.31469,0,0,0-13.64453-32.96972h-.01074a19.19072,19.19072,0,0,0-13.6582,5.65625l-8.68555-8.68555.68848-.69043A19.31355,19.31355,0,1,0,58.339,373.6582l-.68311.6836L35.38245,352.06836Z"/><path d="M138.34338,413.65723a8.00063,8.00063,0,0,0,11.31348,0l120-120a8.00034,8.00034,0,0,0,0-11.31446l-64-64a8.00182,8.00182,0,0,0-11.31348,0l-120,120a8.00034,8.00034,0,0,0,0,11.31446Zm61.65674-178.34375L252.68616,288l-28.68579,28.68628L171.31409,264Zm-40.00024,40.00024L212.68616,328l-28.68579,28.68628L131.31409,304Zm-40,40L172.68616,368l-28.686,28.68652L91.31409,344Z"/><path d="M282.34338,269.65723a8.00063,8.00063,0,0,0,11.31348,0l120-120a8.00034,8.00034,0,0,0,0-11.31446l-64-64a8.00182,8.00182,0,0,0-11.31348,0l-120,120a8.00034,8.00034,0,0,0,0,11.31446ZM344.00012,91.31348,396.68616,144l-28.68579,28.68628L315.31409,120Zm-40.00024,40.00024L356.68616,184l-28.68579,28.68628L275.31409,160Zm-40,40L316.68616,224l-28.686,28.68652L235.31409,200Z"/></g></svg>
