<?xml version="1.0" encoding="utf-8"?>
<!-- Generator: Adobe Illustrator 24.2.1, SVG Export Plug-In . SVG Version: 6.00 Build 0)  -->
<svg version="1.1" id="Layer_1" xmlns="http://www.w3.org/2000/svg" xmlns:xlink="http://www.w3.org/1999/xlink" x="0px" y="0px"
	 viewBox="0 0 1000 1000" style="enable-background:new 0 0 1000 1000;" xml:space="preserve">
<style type="text/css">
	.st0{fill:#EBEADC;}
	.st1{fill:#00613A;}
	.st2{fill:#282828;}
	.st3{fill:#F7EC13;}
	.st4{fill:#C32026;}
	.st5{fill:#069747;}
	.st6{fill:#31439B;}
	.st7{fill:#B5B734;}
	.st8{fill:#A54198;}
</style>
<rect x="134.11" y="165" class="st0" width="90" height="506.25"/>
<rect x="720" y="165" class="st1" width="100" height="670"/>
<rect x="820" y="200" class="st2" width="45" height="600"/>
<rect x="790" y="217.5" class="st3" width="30" height="15"/>
<rect x="790" y="277.5" class="st3" width="30" height="15"/>
<rect x="790" y="247.5" class="st3" width="30" height="15"/>
<rect x="790" y="307.5" class="st3" width="30" height="15"/>
<rect x="790" y="337.5" class="st3" width="30" height="15"/>
<rect x="790" y="367.5" class="st3" width="30" height="15"/>
<rect x="790" y="397.5" class="st3" width="30" height="15"/>
<rect x="790" y="427.5" class="st3" width="30" height="15"/>
<rect x="790" y="457.5" class="st3" width="30" height="15"/>
<rect x="790" y="488.63" class="st3" width="30" height="15"/>
<rect x="790" y="519.75" class="st3" width="30" height="15"/>
<rect x="790" y="550.88" class="st3" width="30" height="15"/>
<rect x="790" y="582.45" class="st3" width="30" height="15"/>
<rect x="790" y="614.01" class="st3" width="30" height="15"/>
<rect x="790" y="645.57" class="st3" width="30" height="15"/>
<rect x="790" y="677.14" class="st3" width="30" height="15"/>
<rect x="790" y="708.7" class="st3" width="30" height="15"/>
<rect x="790" y="740.26" class="st3" width="30" height="15"/>
<rect x="790" y="771.83" class="st3" width="30" height="15"/>
<rect x="225" y="200" class="st4" width="495" height="20"/>
<rect x="225" y="220" class="st5" width="495" height="20"/>
<rect x="225" y="240" class="st6" width="495" height="20"/>
<rect x="225" y="260" class="st7" width="495" height="20"/>
<rect x="225" y="280" class="st8" width="495" height="20"/>
<rect x="225" y="300" class="st6" width="495" height="20"/>
<rect x="225" y="320" class="st5" width="495" height="20"/>
<rect x="225" y="340" class="st6" width="495" height="20"/>
<rect x="225" y="360" class="st7" width="495" height="20"/>
<rect x="225" y="380" class="st4" width="495" height="20"/>
<rect x="225" y="400" class="st5" width="495" height="20"/>
<rect x="225" y="420" class="st6" width="495" height="20"/>
<rect x="225" y="440" class="st4" width="495" height="20"/>
<rect x="225" y="460" class="st5" width="495" height="20"/>
<rect x="224.55" y="479.75" class="st5" width="495" height="20"/>
<rect x="224.55" y="499.75" class="st6" width="495" height="20"/>
<rect x="224.55" y="519.75" class="st4" width="495" height="20"/>
<rect x="224.55" y="539.75" class="st5" width="495" height="20"/>
<rect x="225" y="559.95" class="st8" width="495" height="20"/>
<rect x="225" y="579.95" class="st6" width="495" height="20"/>
<rect x="225" y="599.95" class="st5" width="495" height="20"/>
<rect x="224.55" y="616.67" class="st8" width="495" height="20"/>
</svg>
